<svg
    width="137"
    height="52"
    viewBox="0 0 137 52"
    fill="none"
    xmlns="http://www.w3.org/2000/svg"
>
    <path
        fill-rule="evenodd"
        clip-rule="evenodd"
        d="M51.8305 25.9153C51.8305 36.8607 45.045 46.2212 35.4512 50.0198V15.1342H29.4533C29.4533 15.4548 29.3605 15.9441 29.1749 16.6021C28.8543 17.6987 28.3819 18.5761 27.7576 19.2341C26.8466 20.1958 25.6655 20.8369 24.2145 21.1575C23.3035 21.3599 21.7091 21.5118 19.4314 21.613V26.5227H28.0613V51.743C27.3536 51.801 26.6379 51.8306 25.9152 51.8306C11.6026 51.8306 0 40.2279 0 25.9153C0 11.6028 11.6026 0.000118256 25.9152 0.000118256C40.2278 0.000118256 51.8305 11.6028 51.8305 25.9153ZM137 44.5261V39.1355C136.764 39.1524 136.519 39.1693 136.266 39.1861H135.583C134.115 39.1861 133.238 39.0512 132.951 38.7812C132.664 38.4944 132.521 37.7858 132.521 36.6554V22.078H137V16.9406H132.521V9.24697H125.384V16.9406H121.537V22.078H125.384V39.0596C125.384 40.7805 125.789 42.0544 126.599 42.8811C127.847 44.1802 130.175 44.7707 133.584 44.6526L137 44.5261ZM64.8728 19.6738C66.7794 17.2442 70.0525 16.0295 74.6923 16.0295C77.7123 16.0295 80.395 16.6284 82.7402 17.8263C85.0854 19.0242 86.258 21.2851 86.258 24.6088V37.2627C86.258 38.1401 86.2748 39.203 86.3086 40.4515C86.3592 41.3964 86.5026 42.0375 86.7388 42.3749C86.975 42.7124 87.3293 42.9908 87.8017 43.2101V44.273H79.9563C79.737 43.7162 79.5851 43.1932 79.5008 42.7039C79.4164 42.2146 79.3489 41.6579 79.2983 41.0336C78.3029 42.1134 77.1556 43.0329 75.8564 43.7922C74.3042 44.6864 72.5496 45.1335 70.5924 45.1335C68.0954 45.1335 66.0286 44.4249 64.392 43.0076C62.7723 41.5735 61.9624 39.5489 61.9624 36.9337C61.9624 33.5425 63.27 31.0876 65.8852 29.5692C67.3193 28.7424 69.4283 28.1519 72.2121 27.7976L74.667 27.4939C75.9999 27.3252 76.9531 27.1143 77.5268 26.8612C78.5559 26.4226 79.0705 25.7392 79.0705 24.8113C79.0705 23.6809 78.674 22.9048 77.8811 22.483C77.105 22.0443 75.9577 21.825 74.4392 21.825C72.7351 21.825 71.5288 22.2468 70.8202 23.0904C70.314 23.7146 69.9766 24.5582 69.8079 25.6211H62.8482C63.0001 23.2085 63.6749 21.226 64.8728 19.6738ZM70.2381 39.0596C70.913 39.6164 71.7397 39.8948 72.7183 39.8948C74.2705 39.8948 75.6962 39.4392 76.9953 38.5281C78.3113 37.6171 78.9946 35.9552 79.0452 33.5425V30.8599C78.5897 31.1467 78.1257 31.3829 77.6533 31.5685C77.1978 31.7372 76.5651 31.8975 75.7552 32.0493L74.1355 32.353C72.617 32.623 71.5288 32.952 70.8708 33.34C69.7573 33.998 69.2005 35.0188 69.2005 36.4023C69.2005 37.6339 69.5464 38.5197 70.2381 39.0596ZM105.669 22.0274C103.223 22.0274 101.544 23.065 100.633 25.1403C100.16 26.237 99.9242 27.6373 99.9242 29.3414V44.273H92.7368V16.7381H99.6964V20.762C100.624 19.3448 101.502 18.324 102.328 17.6998C103.813 16.5862 105.694 16.0295 107.972 16.0295C110.823 16.0295 113.152 16.7803 114.957 18.2819C116.779 19.7666 117.69 22.2383 117.69 25.6971V44.273H110.3V27.4939C110.3 26.0429 110.106 24.9294 109.718 24.1533C109.01 22.736 107.66 22.0274 105.669 22.0274Z"
        fill="#EF2B2B"
    />
</svg>