<svg xmlns="http://www.w3.org/2000/svg" xmlns:xlink="http://www.w3.org/1999/xlink" width="500" zoomAndPan="magnify" viewBox="0 0 375 374.999991" height="500" preserveAspectRatio="xMidYMid meet" version="1.0"><path fill="#000000" d="M 354.464844 90.78125 C 348.273438 85.03125 332.515625 75.609375 321.277344 69.582031 C 307.6875 62.304688 290.039062 53.90625 274.40625 55.1875 C 268.851562 55.636719 264.871094 62.972656 268.742188 67.566406 C 278.496094 79.097656 295.234375 86.175781 308.574219 93.347656 C 181.015625 107.007812 55.109375 185.382812 7.980469 307.257812 C 5.101562 314.703125 14.867188 320.195312 19.152344 313.109375 C 82.488281 208.132812 191.699219 131.914062 314.671875 125.96875 C 312.339844 129.445312 310.007812 132.9375 307.660156 136.398438 C 298.167969 150.414062 287.1875 163.785156 282.753906 180.335938 C 279.808594 191.324219 293.71875 200.28125 302.820312 194.078125 C 316.269531 184.917969 324.660156 170.644531 334.058594 157.652344 C 343.59375 144.46875 353.46875 131.476562 362.511719 117.953125 C 368.84375 108.503906 360.65625 96.535156 354.464844 90.78125 Z M 354.464844 90.78125 " fill-opacity="1" fill-rule="nonzero"/></svg>