<?xml version="1.0" encoding="iso-8859-1"?>
<!-- Uploaded to: SVG Repo, www.svgrepo.com, Generator: SVG Repo Mixer Tools -->
<!DOCTYPE svg PUBLIC "-//W3C//DTD SVG 1.1//EN" "http://www.w3.org/Graphics/SVG/1.1/DTD/svg11.dtd">
<svg fill="#000000" version="1.1" id="Capa_1" xmlns="http://www.w3.org/2000/svg" xmlns:xlink="http://www.w3.org/1999/xlink" 
	 width="800px" height="800px" viewBox="0 0 470.101 470.101"
	 xml:space="preserve">
<g>
	<path d="M22.801,328.623C17.293,364.731,3.217,443.68,48.505,462.039c50.184,20.196,126.684-2.448,176.256-14.688
		c28.764-6.732,129.131-28.152,121.788-74.053c-0.612-2.447-1.836-4.896-4.284-6.119c-9.792-25.093-42.84-45.9-62.424-63.648
		c-3.672-3.061-7.344-6.12-11.016-9.792c59.364-64.261,144.432-115.057,183.6-194.616c2.449-4.896,1.225-9.18-1.223-12.24
		c0.611-0.611,0.611-1.224,0.611-1.836c3.061-14.688-22.645-31.212-31.824-39.78c-16.524-15.3-33.66-31.823-53.244-43.451
		c-4.896-3.061-9.18-1.836-12.853,0.611c-3.06,0-5.508,1.225-7.955,4.284c-59.977,67.32-111.384,138.924-175.644,201.96
		c-20.808-19.584-41.616-39.78-59.364-61.812c-2.448-2.448-4.896-4.284-7.956-4.896c-1.224-9.18-17.136-14.076-23.868-3.672
		C44.222,190.311,31.981,267.423,22.801,328.623z"/>
</g>
</svg>