<svg xmlns="http://www.w3.org/2000/svg" xmlns:xlink="http://www.w3.org/1999/xlink" width="500" zoomAndPan="magnify" viewBox="0 0 375 374.999991" height="500" preserveAspectRatio="xMidYMid meet" version="1.0"><defs><clipPath id="b49d823a2e"><path d="M 61 77.578125 L 314.957031 77.578125 L 314.957031 297.328125 L 61 297.328125 Z M 61 77.578125 " clip-rule="nonzero"/></clipPath></defs><g clip-path="url(#b49d823a2e)"><path fill="#ffffff" d="M 298.820312 254.984375 C 292.65625 258.207031 286.421875 261.101562 280.046875 263.484375 C 272.828125 266.144531 265.496094 268.085938 257.859375 268.972656 C 240.789062 271.796875 220.195312 269.019531 203.5 260.355469 C 189.789062 253.234375 178.746094 242.023438 175.054688 226.214844 C 179.234375 225.375 183.300781 224.230469 187.222656 222.691406 C 194.8125 219.679688 201.769531 215.125 207.632812 208.167969 C 211.742188 203.285156 216.203125 195.394531 217.089844 188.203125 C 217.882812 181.804688 216.109375 175.921875 210.410156 171.996094 C 199.039062 164.222656 188.085938 168.097656 179.46875 177.53125 C 169.777344 188.15625 163.496094 206.183594 163.824219 217.832031 C 159.691406 218.277344 155.558594 218.535156 151.472656 218.769531 C 134.5625 219.703125 117.679688 214.261719 103.648438 203.707031 C 90.664062 193.898438 80.132812 179.75 74.269531 162.167969 C 69.34375 148.085938 69.601562 133.117188 71.910156 119.597656 C 73.523438 110.1875 76.230469 101.570312 79.105469 94.238281 C 81.71875 87.5625 84.195312 82.003906 87.042969 78.222656 C 87.183594 78.082031 87.183594 77.847656 87.042969 77.707031 C 86.902344 77.566406 86.671875 77.566406 86.53125 77.707031 C 82.628906 80.742188 78.148438 85.390625 74.199219 91.765625 C 69.761719 98.910156 66.121094 108.015625 63.738281 117.917969 C 60.164062 132.722656 60.003906 149.441406 65 165.273438 C 71.492188 184.886719 83.261719 200.695312 97.761719 211.621094 C 113.664062 223.625 132.859375 229.789062 152.078125 228.761719 C 156.421875 228.527344 160.835938 228.25 165.226562 227.757812 C 169.429688 246.929688 182.503906 260.660156 199.085938 269.089844 C 217.648438 278.523438 240.582031 281.207031 259.449219 277.820312 C 265.941406 276.351562 272.175781 274.203125 278.222656 271.445312 C 282.660156 269.414062 286.980469 267.058594 291.207031 264.511719 C 292.09375 263.414062 292.957031 262.292969 293.847656 261.195312 C 295.457031 259.09375 297.160156 257.039062 298.820312 254.984375 Z M 186.917969 184.304688 C 191.914062 178.839844 198.128906 175.78125 204.710938 180.308594 C 207.75 182.386719 207.515625 185.960938 206.558594 189.417969 C 205.320312 193.992188 202.496094 198.59375 199.925781 201.675781 C 195.230469 207.28125 189.605469 210.921875 183.507812 213.351562 C 180.378906 214.589844 177.132812 215.546875 173.820312 216.246094 C 173.980469 206.695312 179.234375 192.707031 186.917969 184.304688 Z M 314.652344 250.78125 C 314.371094 252.042969 313.554688 253.421875 312.996094 254.191406 C 308.277344 260.378906 303.488281 266.613281 298.1875 272.425781 C 295.808594 275.019531 293.308594 277.472656 290.785156 279.898438 C 284.808594 285.621094 278.714844 290.921875 272.757812 296.523438 C 272.175781 297.226562 271.125 297.320312 270.425781 296.710938 C 269.722656 296.128906 269.628906 295.078125 270.238281 294.375 C 275.632812 286.296875 280.886719 278.195312 286.722656 270.253906 C 288.171875 268.292969 289.664062 266.378906 291.183594 264.464844 C 295.246094 262.011719 299.238281 259.351562 303.164062 256.527344 C 303.957031 256.035156 304.191406 254.984375 303.699219 254.191406 C 303.210938 253.398438 302.160156 253.164062 301.363281 253.652344 C 300.523438 254.097656 299.683594 254.539062 298.84375 254.984375 C 299.214844 254.515625 299.613281 254.027344 299.988281 253.558594 C 290.179688 253.933594 275.820312 255.21875 272.339844 255.453125 L 263.886719 255.753906 C 263.113281 255.636719 261.433594 256.128906 260.617188 255.824219 C 259.472656 255.40625 259.984375 255.683594 259.613281 255.148438 C 259.097656 254.425781 258.910156 255.335938 258.820312 254.890625 C 258.632812 254.050781 257.859375 254.984375 258.046875 254.402344 C 258.164062 254.074219 257.605469 254.332031 257.789062 254.050781 C 258.257812 253.375 256.507812 253.070312 257.699219 252.859375 C 257.929688 252.8125 257.558594 252.507812 257.882812 252.554688 C 258.796875 252.671875 257.066406 251.433594 259.074219 252.742188 C 259.214844 252.601562 259.449219 252.625 259.589844 252.765625 C 259.730469 252.90625 259.707031 253.140625 259.566406 253.28125 C 260.03125 254.121094 259.914062 253.769531 259.914062 253.769531 C 259.914062 253.769531 260.476562 254.261719 260.21875 253.957031 C 259.9375 253.605469 260.710938 253.933594 260.5 253.746094 C 260.21875 253.488281 260.875 253.488281 260.617188 253.351562 C 260.195312 253.140625 260.964844 252.859375 260.570312 252.8125 C 260.289062 252.765625 260.710938 252.460938 260.429688 252.484375 C 259.683594 252.554688 260.335938 251.085938 259.660156 251.785156 C 259.378906 252.066406 259.191406 250.734375 258.957031 251.503906 C 258.886719 251.714844 258.492188 251.15625 258.796875 251.226562 C 259.191406 251.296875 258.46875 251.015625 258.75 250.523438 C 259.144531 249.847656 260.125 249.21875 261.011719 248.65625 C 261.691406 248.234375 262.390625 248.144531 262.882812 248.027344 L 271.453125 246.484375 C 275.863281 245.996094 297.113281 243.121094 305.847656 243.027344 C 308.488281 243.003906 310.378906 243.402344 311.242188 243.730469 C 313.132812 244.5 313.953125 245.832031 314.394531 246.882812 C 314.886719 248.027344 314.980469 249.378906 314.652344 250.78125 Z M 314.652344 250.78125 " fill-opacity="1" fill-rule="nonzero"/></g></svg>