<svg
    width="501"
    height="327"
    viewBox="0 0 501 327"
    fill="none"
    xmlns="http://www.w3.org/2000/svg"
>
    <path
        d="M354.018 82.3141C354.284 82.8777 354.955 83.1194 355.519 82.8535C355.622 82.8051 355.714 82.7424 355.795 82.6699C355.322 82.0815 354.834 81.5097 354.33 80.9575C353.935 81.2763 353.791 81.8345 354.018 82.3141Z"
        fill="#D8A000"
    />
    <path
        d="M360.034 89.7872C359.768 89.2236 359.096 88.9827 358.534 89.2478C357.97 89.513 357.728 90.1852 357.993 90.7487C358.259 91.3123 358.931 91.5532 359.494 91.2881C360.057 91.0229 360.3 90.3507 360.034 89.7872Z"
        fill="#D8A000"
    />
    <path
        d="M361.969 99.1832C362.195 99.6628 362.716 99.9083 363.213 99.8063C363.109 99.0653 362.978 98.3251 362.826 97.5871C362.718 97.6022 362.611 97.6339 362.509 97.6822C361.945 97.9474 361.703 98.6197 361.969 99.1832Z"
        fill="#D8A000"
    />
    <path
        d="M344.417 76.5281C344.151 75.9646 343.48 75.7236 342.916 75.9888C342.353 76.2539 342.111 76.9262 342.377 77.4897C342.641 78.0532 343.314 78.2942 343.877 78.029C344.441 77.7639 344.682 77.0916 344.417 76.5281Z"
        fill="#D8A000"
    />
    <path
        d="M348.393 84.9631C348.127 84.3996 347.455 84.1579 346.892 84.4238C346.328 84.6889 346.086 85.3605 346.351 85.924C346.617 86.4882 347.289 86.7292 347.852 86.4641C348.416 86.1982 348.658 85.5266 348.393 84.9631Z"
        fill="#D8A000"
    />
    <path
        d="M352.368 93.3972C352.102 92.8336 351.43 92.5919 350.867 92.8578C350.303 93.123 350.062 93.7952 350.328 94.358C350.592 94.9223 351.264 95.1632 351.828 94.8981C352.391 94.6329 352.633 93.9607 352.368 93.3972Z"
        fill="#D8A000"
    />
    <path
        d="M356.343 101.832C356.077 101.268 355.406 101.027 354.842 101.293C354.279 101.558 354.037 102.23 354.303 102.794C354.567 103.357 355.239 103.598 355.803 103.333C356.366 103.068 356.608 102.395 356.343 101.832Z"
        fill="#D8A000"
    />
    <path
        d="M360.318 110.267C360.052 109.703 359.381 109.462 358.817 109.728C358.254 109.993 358.012 110.664 358.278 111.228C358.542 111.792 359.215 112.033 359.778 111.768C360.342 111.502 360.584 110.83 360.318 110.267Z"
        fill="#D8A000"
    />
    <path
        d="M332.775 71.7036C332.509 71.1401 331.838 70.8984 331.274 71.1643C330.712 71.4294 330.469 72.1009 330.735 72.6644C331 73.2287 331.672 73.4697 332.236 73.2045C332.799 72.9386 333.041 72.2671 332.775 71.7036Z"
        fill="#D8A000"
    />
    <path
        d="M336.751 80.1381C336.485 79.5746 335.813 79.3329 335.25 79.5988C334.687 79.8639 334.444 80.5362 334.71 81.0997C334.975 81.6632 335.648 81.9042 336.211 81.639C336.774 81.3739 337.017 80.7016 336.751 80.1381Z"
        fill="#D8A000"
    />
    <path
        d="M340.726 88.5726C340.46 88.0091 339.788 87.7681 339.225 88.0333C338.662 88.2984 338.42 88.9707 338.686 89.5342C338.951 90.0977 339.623 90.3387 340.187 90.0735C340.75 89.8084 340.992 89.1361 340.726 88.5726Z"
        fill="#D8A000"
    />
    <path
        d="M344.701 97.0074C344.435 96.4439 343.764 96.2022 343.201 96.4681C342.637 96.7332 342.395 97.4055 342.661 97.9683C342.926 98.5325 343.598 98.7735 344.162 98.5084C344.725 98.2432 344.967 97.571 344.701 97.0074Z"
        fill="#D8A000"
    />
    <path
        d="M348.677 105.442C348.411 104.878 347.739 104.637 347.176 104.903C346.613 105.168 346.37 105.84 346.636 106.404C346.901 106.967 347.574 107.208 348.137 106.943C348.701 106.678 348.942 106.005 348.677 105.442Z"
        fill="#D8A000"
    />
    <path
        d="M352.652 113.877C352.386 113.314 351.714 113.072 351.152 113.338C350.588 113.603 350.346 114.275 350.611 114.838C350.877 115.402 351.549 115.643 352.112 115.378C352.676 115.112 352.918 114.441 352.652 113.877Z"
        fill="#D8A000"
    />
    <path
        d="M354.587 123.272C354.853 123.836 355.524 124.078 356.088 123.812C356.651 123.547 356.893 122.875 356.627 122.312C356.362 121.747 355.69 121.506 355.127 121.772C354.563 122.037 354.321 122.709 354.587 123.272Z"
        fill="#D8A000"
    />
    <path
        d="M325.109 75.3136C324.844 74.7501 324.172 74.5084 323.609 74.7743C323.045 75.0394 322.803 75.7109 323.068 76.2744C323.334 76.8387 324.006 77.0797 324.569 76.8145C325.133 76.5486 325.375 75.8771 325.109 75.3136Z"
        fill="#D8A000"
    />
    <path
        d="M329.085 83.7481C328.819 83.1846 328.147 82.9429 327.584 83.2088C327.02 83.4739 326.779 84.1462 327.044 84.7089C327.309 85.2732 327.981 85.5142 328.545 85.249C329.108 84.9839 329.351 84.3116 329.085 83.7481Z"
        fill="#D8A000"
    />
    <path
        d="M333.06 92.1828C332.794 91.6193 332.123 91.3784 331.559 91.6435C330.996 91.9086 330.754 92.5809 331.02 93.1444C331.284 93.7079 331.956 93.9489 332.52 93.6838C333.083 93.4186 333.326 92.7464 333.06 92.1828Z"
        fill="#D8A000"
    />
    <path
        d="M337.035 100.617C336.769 100.054 336.098 99.8122 335.534 100.078C334.971 100.343 334.729 101.015 334.995 101.578C335.259 102.143 335.932 102.383 336.495 102.118C337.059 101.852 337.301 101.181 337.035 100.617Z"
        fill="#D8A000"
    />
    <path
        d="M341.011 109.052C340.745 108.488 340.073 108.247 339.51 108.513C338.946 108.778 338.704 109.45 338.97 110.013C339.235 110.577 339.907 110.818 340.471 110.553C341.034 110.288 341.277 109.615 341.011 109.052Z"
        fill="#D8A000"
    />
    <path
        d="M344.986 117.487C344.72 116.923 344.049 116.682 343.485 116.947C342.922 117.213 342.68 117.884 342.946 118.448C343.211 119.011 343.882 119.253 344.446 118.988C345.009 118.722 345.252 118.05 344.986 117.487Z"
        fill="#D8A000"
    />
    <path
        d="M346.921 126.882C347.187 127.446 347.857 127.688 348.421 127.422C348.984 127.157 349.227 126.485 348.961 125.922C348.696 125.357 348.024 125.116 347.46 125.382C346.897 125.647 346.655 126.319 346.921 126.882Z"
        fill="#D8A000"
    />
    <path
        d="M317.443 78.9236C317.177 78.3601 316.505 78.1191 315.943 78.3842C315.379 78.6494 315.137 79.3216 315.403 79.8852C315.668 80.4487 316.34 80.6896 316.904 80.4245C317.466 80.1594 317.709 79.4871 317.443 78.9236Z"
        fill="#D8A000"
    />
    <path
        d="M321.418 87.3583C321.152 86.7948 320.481 86.5531 319.918 86.819C319.355 87.0841 319.112 87.7557 319.378 88.3192C319.643 88.8834 320.315 89.1244 320.879 88.8593C321.442 88.5934 321.684 87.9218 321.418 87.3583Z"
        fill="#D8A000"
    />
    <path
        d="M325.393 95.7928C325.128 95.2293 324.456 94.9876 323.893 95.2535C323.33 95.5186 323.087 96.1909 323.353 96.7544C323.618 97.3179 324.291 97.5589 324.854 97.2938C325.418 97.0286 325.659 96.3563 325.393 95.7928Z"
        fill="#D8A000"
    />
    <path
        d="M329.369 104.227C329.103 103.664 328.431 103.422 327.869 103.688C327.305 103.953 327.063 104.625 327.329 105.188C327.594 105.753 328.266 105.993 328.829 105.728C329.393 105.462 329.635 104.791 329.369 104.227Z"
        fill="#D8A000"
    />
    <path
        d="M333.344 112.662C333.078 112.099 332.407 111.857 331.844 112.123C331.28 112.388 331.038 113.06 331.304 113.623C331.569 114.187 332.241 114.428 332.805 114.163C333.368 113.898 333.61 113.226 333.344 112.662Z"
        fill="#D8A000"
    />
    <path
        d="M337.319 121.097C337.053 120.533 336.383 120.292 335.819 120.557C335.256 120.822 335.013 121.495 335.279 122.058C335.544 122.622 336.216 122.863 336.78 122.598C337.343 122.332 337.585 121.66 337.319 121.097Z"
        fill="#D8A000"
    />
    <path
        d="M339.254 130.492C339.52 131.056 340.192 131.298 340.755 131.032C341.319 130.767 341.56 130.094 341.295 129.532C341.029 128.967 340.358 128.726 339.794 128.992C339.231 129.257 338.988 129.929 339.254 130.492Z"
        fill="#D8A000"
    />
    <path
        d="M309.777 82.5336C309.511 81.97 308.84 81.7291 308.276 81.9942C307.713 82.2594 307.471 82.9316 307.737 83.4951C308.001 84.0586 308.673 84.2996 309.237 84.0345C309.8 83.7693 310.043 83.0971 309.777 82.5336Z"
        fill="#D8A000"
    />
    <path
        d="M313.752 90.9683C313.486 90.4048 312.815 90.1631 312.251 90.429C311.688 90.6941 311.446 91.3656 311.712 91.9292C311.976 92.4934 312.649 92.7344 313.212 92.4692C313.776 92.2034 314.018 91.5318 313.752 90.9683Z"
        fill="#D8A000"
    />
    <path
        d="M317.728 99.4028C317.462 98.8393 316.79 98.5976 316.227 98.8635C315.663 99.1286 315.421 99.8009 315.687 100.364C315.952 100.928 316.624 101.169 317.187 100.904C317.751 100.639 317.993 99.9663 317.728 99.4028Z"
        fill="#D8A000"
    />
    <path
        d="M321.703 107.837C321.437 107.274 320.765 107.033 320.202 107.298C319.638 107.563 319.397 108.235 319.663 108.799C319.928 109.362 320.599 109.603 321.163 109.338C321.726 109.073 321.969 108.401 321.703 107.837Z"
        fill="#D8A000"
    />
    <path
        d="M325.678 116.272C325.412 115.709 324.741 115.467 324.177 115.733C323.614 115.998 323.372 116.669 323.638 117.233C323.903 117.797 324.575 118.038 325.138 117.773C325.702 117.507 325.944 116.836 325.678 116.272Z"
        fill="#D8A000"
    />
    <path
        d="M329.653 124.707C329.388 124.143 328.716 123.902 328.153 124.167C327.589 124.432 327.347 125.105 327.613 125.667C327.878 126.232 328.551 126.473 329.113 126.208C329.677 125.942 329.919 125.27 329.653 124.707Z"
        fill="#D8A000"
    />
    <path
        d="M331.588 134.103C331.854 134.666 332.526 134.908 333.089 134.642C333.652 134.377 333.895 133.705 333.629 133.142C333.364 132.578 332.691 132.337 332.128 132.602C331.564 132.867 331.323 133.539 331.588 134.103Z"
        fill="#D8A000"
    />
    <path
        d="M302.11 86.1438C301.844 85.5803 301.173 85.3386 300.61 85.6045C300.047 85.8696 299.804 86.5419 300.07 87.1046C300.335 87.6689 301.007 87.9099 301.571 87.6447C302.135 87.3796 302.376 86.7073 302.11 86.1438Z"
        fill="#D8A000"
    />
    <path
        d="M306.086 94.5783C305.82 94.0148 305.148 93.7731 304.586 94.039C304.022 94.3041 303.78 94.9756 304.045 95.5391C304.311 96.1034 304.983 96.3444 305.546 96.0792C306.11 95.8133 306.352 95.1418 306.086 94.5783Z"
        fill="#D8A000"
    />
    <path
        d="M310.061 103.013C309.795 102.45 309.123 102.208 308.561 102.474C307.997 102.739 307.755 103.411 308.021 103.974C308.286 104.538 308.958 104.779 309.522 104.514C310.085 104.249 310.327 103.577 310.061 103.013Z"
        fill="#D8A000"
    />
    <path
        d="M314.036 111.447C313.77 110.884 313.1 110.643 312.536 110.908C311.973 111.173 311.73 111.845 311.996 112.409C312.261 112.972 312.933 113.213 313.497 112.948C314.06 112.683 314.302 112.011 314.036 111.447Z"
        fill="#D8A000"
    />
    <path
        d="M318.012 119.882C317.746 119.319 317.075 119.077 316.511 119.343C315.948 119.608 315.705 120.279 315.971 120.843C316.236 121.407 316.909 121.648 317.472 121.383C318.036 121.117 318.277 120.446 318.012 119.882Z"
        fill="#D8A000"
    />
    <path
        d="M321.987 128.317C321.722 127.753 321.05 127.511 320.487 127.777C319.923 128.042 319.681 128.715 319.947 129.277C320.212 129.842 320.884 130.083 321.447 129.818C322.011 129.552 322.253 128.88 321.987 128.317Z"
        fill="#D8A000"
    />
    <path
        d="M323.922 137.713C324.188 138.276 324.859 138.517 325.423 138.252C325.986 137.987 326.228 137.314 325.962 136.751C325.698 136.187 325.025 135.946 324.462 136.212C323.898 136.477 323.657 137.149 323.922 137.713Z"
        fill="#D8A000"
    />
    <path
        d="M298.42 98.1884C298.154 97.6249 297.482 97.3832 296.919 97.6483C296.355 97.9142 296.114 98.5857 296.38 99.1493C296.645 99.7128 297.316 99.9545 297.88 99.6893C298.443 99.4235 298.686 98.7519 298.42 98.1884Z"
        fill="#D8A000"
    />
    <path
        d="M302.395 106.623C302.129 106.06 301.458 105.818 300.894 106.084C300.331 106.349 300.089 107.02 300.355 107.584C300.62 108.148 301.292 108.389 301.855 108.124C302.419 107.858 302.661 107.187 302.395 106.623Z"
        fill="#D8A000"
    />
    <path
        d="M306.37 115.057C306.104 114.494 305.433 114.253 304.869 114.518C304.306 114.783 304.064 115.455 304.33 116.018C304.595 116.582 305.268 116.823 305.83 116.558C306.394 116.293 306.636 115.621 306.37 115.057Z"
        fill="#D8A000"
    />
    <path
        d="M310.346 123.492C310.08 122.929 309.408 122.687 308.845 122.952C308.281 123.218 308.04 123.89 308.305 124.453C308.571 125.017 309.243 125.259 309.806 124.993C310.369 124.728 310.612 124.056 310.346 123.492Z"
        fill="#D8A000"
    />
    <path
        d="M314.321 131.926C314.055 131.363 313.384 131.121 312.82 131.387C312.257 131.652 312.015 132.324 312.281 132.887C312.546 133.451 313.218 133.692 313.781 133.427C314.344 133.161 314.587 132.49 314.321 131.926Z"
        fill="#D8A000"
    />
    <path
        d="M294.728 110.233C294.503 109.753 293.981 109.508 293.484 109.609C293.588 110.35 293.719 111.09 293.872 111.829C293.979 111.813 294.086 111.782 294.189 111.734C294.753 111.468 294.994 110.797 294.728 110.233Z"
        fill="#D8A000"
    />
    <path
        d="M298.704 118.668C298.439 118.104 297.767 117.862 297.204 118.128C296.64 118.393 296.398 119.066 296.664 119.628C296.929 120.193 297.601 120.434 298.165 120.169C298.728 119.903 298.97 119.231 298.704 118.668Z"
        fill="#D8A000"
    />
    <path
        d="M302.679 127.102C302.414 126.539 301.742 126.298 301.179 126.563C301.075 126.611 300.983 126.674 300.902 126.746C301.375 127.335 301.863 127.907 302.367 128.46C302.762 128.141 302.906 127.583 302.679 127.102Z"
        fill="#D8A000"
    />
    <path
        d="M259.579 249.848C259.844 250.412 260.516 250.653 261.08 250.388C261.183 250.339 261.275 250.277 261.356 250.204C260.883 249.616 260.396 249.044 259.891 248.491C259.496 248.81 259.352 249.368 259.579 249.848Z"
        fill="#D8A000"
    />
    <path
        d="M265.594 257.322C265.329 256.758 264.658 256.517 264.094 256.782C263.531 257.047 263.288 257.719 263.554 258.282C263.819 258.847 264.491 259.088 265.055 258.822C265.618 258.557 265.86 257.885 265.594 257.322Z"
        fill="#D8A000"
    />
    <path
        d="M267.529 266.717C267.756 267.197 268.276 267.442 268.774 267.34C268.671 266.6 268.54 265.86 268.387 265.121C268.279 265.137 268.173 265.168 268.069 265.217C267.506 265.482 267.263 266.153 267.529 266.717Z"
        fill="#D8A000"
    />
    <path
        d="M249.978 244.062C249.712 243.499 249.04 243.257 248.477 243.522C247.913 243.788 247.672 244.46 247.938 245.023C248.203 245.588 248.875 245.829 249.438 245.563C250.002 245.298 250.244 244.625 249.978 244.062Z"
        fill="#D8A000"
    />
    <path
        d="M253.953 252.497C253.687 251.934 253.016 251.692 252.452 251.957C251.889 252.223 251.647 252.895 251.913 253.458C252.178 254.022 252.85 254.263 253.414 253.997C253.977 253.733 254.219 253.061 253.953 252.497Z"
        fill="#D8A000"
    />
    <path
        d="M257.928 260.932C257.662 260.368 256.991 260.127 256.427 260.391C255.864 260.657 255.622 261.329 255.888 261.892C256.153 262.457 256.826 262.698 257.389 262.432C257.953 262.167 258.194 261.495 257.928 260.932Z"
        fill="#D8A000"
    />
    <path
        d="M261.904 269.366C261.638 268.802 260.966 268.561 260.403 268.826C259.839 269.091 259.598 269.763 259.863 270.327C260.129 270.891 260.801 271.133 261.364 270.867C261.927 270.601 262.17 269.929 261.904 269.366Z"
        fill="#D8A000"
    />
    <path
        d="M265.879 277.8C265.613 277.237 264.942 276.996 264.378 277.261C263.815 277.527 263.573 278.199 263.839 278.761C264.104 279.326 264.776 279.567 265.34 279.301C265.902 279.036 266.145 278.364 265.879 277.8Z"
        fill="#D8A000"
    />
    <path
        d="M238.336 239.237C238.07 238.675 237.399 238.433 236.835 238.698C236.272 238.964 236.03 239.635 236.296 240.198C236.561 240.762 237.233 241.004 237.797 240.738C238.36 240.473 238.601 239.801 238.336 239.237Z"
        fill="#D8A000"
    />
    <path
        d="M242.312 247.673C242.046 247.109 241.374 246.868 240.811 247.133C240.247 247.399 240.005 248.07 240.271 248.634C240.536 249.197 241.209 249.439 241.772 249.173C242.336 248.908 242.577 248.236 242.312 247.673Z"
        fill="#D8A000"
    />
    <path
        d="M246.287 256.107C246.021 255.544 245.349 255.302 244.786 255.567C244.222 255.833 243.981 256.505 244.247 257.068C244.512 257.632 245.184 257.873 245.748 257.607C246.311 257.342 246.553 256.671 246.287 256.107Z"
        fill="#D8A000"
    />
    <path
        d="M250.262 264.542C249.996 263.978 249.325 263.737 248.761 264.001C248.198 264.267 247.956 264.939 248.222 265.502C248.487 266.067 249.159 266.308 249.723 266.042C250.286 265.777 250.528 265.105 250.262 264.542Z"
        fill="#D8A000"
    />
    <path
        d="M254.237 272.976C253.972 272.412 253.3 272.171 252.737 272.437C252.173 272.702 251.931 273.373 252.197 273.937C252.462 274.501 253.135 274.743 253.698 274.477C254.262 274.212 254.503 273.539 254.237 272.976Z"
        fill="#D8A000"
    />
    <path
        d="M258.213 281.411C257.948 280.847 257.275 280.606 256.712 280.872C256.148 281.137 255.907 281.808 256.173 282.372C256.438 282.936 257.11 283.178 257.673 282.912C258.237 282.647 258.479 281.974 258.213 281.411Z"
        fill="#D8A000"
    />
    <path
        d="M260.148 290.807C260.413 291.37 261.085 291.612 261.649 291.346C262.212 291.08 262.453 290.409 262.189 289.845C261.923 289.282 261.25 289.04 260.687 289.306C260.123 289.571 259.882 290.244 260.148 290.807Z"
        fill="#D8A000"
    />
    <path
        d="M230.67 242.848C230.404 242.284 229.733 242.043 229.169 242.308C228.606 242.574 228.364 243.245 228.63 243.808C228.895 244.373 229.567 244.614 230.131 244.348C230.694 244.083 230.936 243.411 230.67 242.848Z"
        fill="#D8A000"
    />
    <path
        d="M234.645 251.282C234.38 250.719 233.708 250.478 233.144 250.743C232.581 251.009 232.339 251.68 232.605 252.243C232.87 252.807 233.543 253.049 234.106 252.783C234.67 252.518 234.911 251.846 234.645 251.282Z"
        fill="#D8A000"
    />
    <path
        d="M238.621 259.717C238.355 259.154 237.683 258.912 237.12 259.177C236.556 259.443 236.315 260.115 236.58 260.678C236.846 261.242 237.518 261.483 238.081 261.217C238.645 260.952 238.887 260.28 238.621 259.717Z"
        fill="#D8A000"
    />
    <path
        d="M242.596 268.152C242.33 267.588 241.659 267.346 241.095 267.611C240.532 267.877 240.29 268.549 240.556 269.112C240.821 269.677 241.493 269.918 242.057 269.652C242.62 269.387 242.862 268.715 242.596 268.152Z"
        fill="#D8A000"
    />
    <path
        d="M246.571 276.586C246.306 276.023 245.634 275.782 245.07 276.046C244.507 276.312 244.265 276.984 244.531 277.547C244.796 278.111 245.468 278.352 246.032 278.087C246.595 277.822 246.837 277.15 246.571 276.586Z"
        fill="#D8A000"
    />
    <path
        d="M250.547 285.02C250.281 284.457 249.609 284.216 249.046 284.481C248.482 284.747 248.24 285.418 248.506 285.981C248.771 286.546 249.444 286.787 250.007 286.521C250.571 286.256 250.812 285.584 250.547 285.02Z"
        fill="#D8A000"
    />
    <path
        d="M252.481 294.417C252.747 294.98 253.419 295.222 253.982 294.957C254.546 294.691 254.788 294.019 254.522 293.456C254.257 292.891 253.584 292.65 253.021 292.916C252.457 293.181 252.216 293.854 252.481 294.417Z"
        fill="#D8A000"
    />
    <path
        d="M223.004 246.458C222.738 245.894 222.066 245.653 221.503 245.918C220.939 246.183 220.698 246.855 220.964 247.418C221.229 247.983 221.901 248.224 222.464 247.958C223.028 247.693 223.27 247.021 223.004 246.458Z"
        fill="#D8A000"
    />
    <path
        d="M226.979 254.892C226.713 254.329 226.042 254.088 225.478 254.353C224.915 254.619 224.673 255.29 224.939 255.853C225.204 256.417 225.876 256.659 226.44 256.393C227.003 256.128 227.245 255.456 226.979 254.892Z"
        fill="#D8A000"
    />
    <path
        d="M230.954 263.327C230.688 262.764 230.017 262.522 229.453 262.787C228.89 263.053 228.648 263.724 228.914 264.288C229.179 264.851 229.852 265.093 230.415 264.827C230.979 264.562 231.22 263.89 230.954 263.327Z"
        fill="#D8A000"
    />
    <path
        d="M234.93 271.762C234.664 271.198 233.992 270.956 233.429 271.221C232.865 271.487 232.624 272.159 232.889 272.722C233.155 273.287 233.827 273.528 234.39 273.262C234.954 272.997 235.196 272.325 234.93 271.762Z"
        fill="#D8A000"
    />
    <path
        d="M238.905 280.196C238.64 279.633 237.968 279.392 237.404 279.656C236.841 279.922 236.599 280.594 236.865 281.157C237.13 281.721 237.802 281.962 238.366 281.697C238.929 281.432 239.171 280.76 238.905 280.196Z"
        fill="#D8A000"
    />
    <path
        d="M242.88 288.631C242.615 288.067 241.943 287.826 241.379 288.092C240.816 288.357 240.574 289.028 240.84 289.592C241.105 290.156 241.777 290.398 242.341 290.132C242.904 289.867 243.146 289.194 242.88 288.631Z"
        fill="#D8A000"
    />
    <path
        d="M244.815 298.027C245.081 298.59 245.753 298.832 246.316 298.567C246.88 298.301 247.121 297.629 246.856 297.066C246.59 296.501 245.918 296.26 245.355 296.526C244.791 296.791 244.549 297.464 244.815 298.027Z"
        fill="#D8A000"
    />
    <path
        d="M215.338 250.068C215.072 249.504 214.4 249.263 213.837 249.528C213.273 249.793 213.031 250.465 213.297 251.028C213.562 251.593 214.235 251.834 214.798 251.568C215.362 251.303 215.603 250.631 215.338 250.068Z"
        fill="#D8A000"
    />
    <path
        d="M219.313 258.502C219.047 257.939 218.375 257.698 217.812 257.963C217.248 258.229 217.007 258.9 217.273 259.463C217.538 260.027 218.21 260.269 218.774 260.003C219.337 259.738 219.579 259.066 219.313 258.502Z"
        fill="#D8A000"
    />
    <path
        d="M223.288 266.936C223.023 266.374 222.351 266.132 221.787 266.397C221.224 266.663 220.982 267.334 221.248 267.898C221.513 268.461 222.185 268.703 222.749 268.437C223.312 268.172 223.554 267.5 223.288 266.936Z"
        fill="#D8A000"
    />
    <path
        d="M227.263 275.372C226.998 274.808 226.326 274.567 225.763 274.832C225.199 275.098 224.957 275.769 225.223 276.333C225.488 276.897 226.161 277.138 226.724 276.872C227.288 276.607 227.529 275.934 227.263 275.372Z"
        fill="#D8A000"
    />
    <path
        d="M231.239 283.806C230.974 283.243 230.301 283.001 229.738 283.266C229.174 283.532 228.933 284.204 229.199 284.767C229.464 285.331 230.136 285.572 230.699 285.306C231.263 285.042 231.505 284.37 231.239 283.806Z"
        fill="#D8A000"
    />
    <path
        d="M235.214 292.241C234.949 291.677 234.277 291.436 233.713 291.701C233.15 291.966 232.908 292.638 233.174 293.201C233.439 293.766 234.111 294.007 234.675 293.741C235.238 293.476 235.48 292.804 235.214 292.241Z"
        fill="#D8A000"
    />
    <path
        d="M237.149 301.636C237.415 302.2 238.086 302.442 238.65 302.177C239.213 301.911 239.455 301.239 239.19 300.676C238.924 300.111 238.252 299.87 237.688 300.136C237.126 300.401 236.884 301.073 237.149 301.636Z"
        fill="#D8A000"
    />
    <path
        d="M207.671 253.678C207.406 253.114 206.734 252.873 206.17 253.138C205.607 253.403 205.365 254.075 205.631 254.638C205.896 255.203 206.569 255.444 207.132 255.179C207.696 254.913 207.937 254.241 207.671 253.678Z"
        fill="#D8A000"
    />
    <path
        d="M211.647 262.112C211.381 261.549 210.709 261.308 210.146 261.573C209.582 261.838 209.34 262.51 209.606 263.073C209.871 263.637 210.544 263.879 211.107 263.613C211.671 263.348 211.913 262.676 211.647 262.112Z"
        fill="#D8A000"
    />
    <path
        d="M215.622 270.547C215.357 269.984 214.685 269.742 214.121 270.007C213.558 270.273 213.317 270.945 213.582 271.507C213.847 272.072 214.519 272.313 215.083 272.048C215.646 271.782 215.888 271.11 215.622 270.547Z"
        fill="#D8A000"
    />
    <path
        d="M219.597 278.982C219.332 278.418 218.66 278.177 218.096 278.442C217.533 278.708 217.292 279.379 217.557 279.943C217.822 280.507 218.494 280.748 219.058 280.482C219.622 280.217 219.863 279.544 219.597 278.982Z"
        fill="#D8A000"
    />
    <path
        d="M223.573 287.416C223.307 286.853 222.635 286.611 222.072 286.876C221.508 287.142 221.267 287.814 221.532 288.377C221.797 288.941 222.47 289.182 223.033 288.916C223.597 288.651 223.838 287.98 223.573 287.416Z"
        fill="#D8A000"
    />
    <path
        d="M227.548 295.851C227.283 295.287 226.61 295.046 226.047 295.311C225.484 295.577 225.242 296.248 225.508 296.812C225.773 297.376 226.445 297.617 227.009 297.352C227.572 297.087 227.814 296.414 227.548 295.851Z"
        fill="#D8A000"
    />
    <path
        d="M229.483 305.247C229.749 305.81 230.42 306.052 230.984 305.787C231.547 305.521 231.789 304.849 231.523 304.286C231.258 303.722 230.586 303.481 230.022 303.747C229.459 304.011 229.218 304.683 229.483 305.247Z"
        fill="#D8A000"
    />
    <path
        d="M203.98 265.722C203.715 265.159 203.043 264.918 202.48 265.183C201.916 265.448 201.674 266.12 201.94 266.683C202.205 267.247 202.878 267.489 203.441 267.223C204.005 266.958 204.246 266.286 203.98 265.722Z"
        fill="#D8A000"
    />
    <path
        d="M207.956 274.157C207.691 273.593 207.018 273.352 206.455 273.617C205.892 273.883 205.65 274.555 205.915 275.117C206.181 275.682 206.853 275.923 207.416 275.658C207.98 275.392 208.222 274.72 207.956 274.157Z"
        fill="#D8A000"
    />
    <path
        d="M211.931 282.591C211.666 282.028 210.994 281.787 210.43 282.052C209.867 282.318 209.626 282.989 209.891 283.553C210.156 284.116 210.828 284.358 211.392 284.092C211.955 283.827 212.197 283.155 211.931 282.591Z"
        fill="#D8A000"
    />
    <path
        d="M215.907 291.026C215.641 290.463 214.969 290.221 214.406 290.486C213.842 290.752 213.601 291.424 213.866 291.987C214.132 292.552 214.804 292.793 215.367 292.527C215.93 292.262 216.172 291.589 215.907 291.026Z"
        fill="#D8A000"
    />
    <path
        d="M219.882 299.461C219.616 298.897 218.945 298.655 218.381 298.92C217.818 299.186 217.576 299.858 217.841 300.421C218.107 300.986 218.779 301.227 219.343 300.961C219.905 300.696 220.147 300.024 219.882 299.461Z"
        fill="#D8A000"
    />
    <path
        d="M200.289 277.767C200.064 277.286 199.542 277.041 199.045 277.143C199.149 277.884 199.279 278.625 199.433 279.363C199.54 279.348 199.647 279.317 199.75 279.267C200.314 279.002 200.555 278.33 200.289 277.767Z"
        fill="#D8A000"
    />
    <path
        d="M204.265 286.201C203.999 285.639 203.328 285.397 202.764 285.662C202.201 285.928 201.959 286.599 202.224 287.163C202.49 287.726 203.162 287.968 203.725 287.702C204.289 287.437 204.53 286.765 204.265 286.201Z"
        fill="#D8A000"
    />
    <path
        d="M208.241 294.636C207.975 294.073 207.303 293.831 206.74 294.096C206.636 294.145 206.544 294.208 206.464 294.28C206.936 294.869 207.423 295.44 207.928 295.993C208.324 295.674 208.466 295.116 208.241 294.636Z"
        fill="#D8A000"
    />
    <path
        d="M385.029 222.885H135.805L119.115 135.344H401.719L385.029 222.885Z"
        fill="#581966"
    />
    <path
        d="M381.013 219.092H139.822L123.669 139.137H397.164L381.013 219.092Z"
        stroke="white"
        stroke-width="0.836"
        stroke-miterlimit="10"
    />
    <mask
        id="mask0_101_2369"
        maskUnits="userSpaceOnUse"
        x="178"
        y="107"
        width="169"
        height="38"
    >
        <path
            d="M178.271 107.354H346.307V144.335H178.271V107.354Z"
            fill="white"
        />
    </mask>
    <g mask="url(#mask0_101_2369)">
        <g opacity="0.679993">
            <path
                d="M346.307 144.335H178.27L185.182 107.354H339.395L346.307 144.335Z"
                fill="#431B4F"
            />
        </g>
    </g>
    <path
        d="M346.307 141.878H178.27L185.182 104.897H339.395L346.307 141.878Z"
        fill="#B41C4F"
    />
    <path
        d="M343.145 139.918H181.433L187.618 106.857H336.96L343.145 139.918Z"
        stroke="white"
        stroke-width="0.836"
        stroke-miterlimit="10"
    />
    <mask
        id="mask1_101_2369"
        maskUnits="userSpaceOnUse"
        x="195"
        y="214"
        width="135"
        height="31"
    >
        <path
            d="M195.273 214.978H329.304V244.474H195.273V214.978Z"
            fill="white"
        />
    </mask>
    <g mask="url(#mask1_101_2369)">
        <g opacity="0.679993">
            <path
                d="M329.304 214.978H195.273L200.787 244.474H323.791L329.304 214.978Z"
                fill="#431B4F"
            />
        </g>
    </g>
    <path
        d="M329.304 216.962H195.273L200.787 246.458H323.791L329.304 216.962Z"
        fill="#B41C4F"
    />
    <path
        d="M326.884 218.709H197.694L202.397 244.711H322.181L326.884 218.709Z"
        stroke="white"
        stroke-width="0.666667"
        stroke-miterlimit="10"
    />
    <path
        d="M184.685 198.417C177.773 198.417 172.429 196.605 168.652 192.981C164.913 189.357 163.043 183.562 163.043 175.596C163.043 167.63 164.913 161.835 168.652 158.211C172.429 154.587 177.773 152.775 184.685 152.775C191.597 152.775 196.922 154.587 200.661 158.211C204.438 161.835 206.326 167.63 206.326 175.596C206.326 183.562 204.438 189.357 200.661 192.981C196.922 196.605 191.597 198.417 184.685 198.417ZM184.685 188.337C185.969 188.337 186.932 187.997 187.574 187.318C188.216 186.638 188.537 185.581 188.537 184.147V167.045C188.537 165.61 188.216 164.553 187.574 163.874C186.932 163.194 185.969 162.855 184.685 162.855C183.401 162.855 182.438 163.194 181.796 163.874C181.154 164.553 180.833 165.61 180.833 167.045V184.147C180.833 185.619 181.154 186.695 181.796 187.375C182.438 188.016 183.401 188.337 184.685 188.337Z"
        fill="white"
    />
    <path
        d="M208.252 197.624V188.337H211.085V162.855H208.252V153.568H242.131V168.234H232.103V162.855H226.948V172.255H235.502V178.71H226.948V188.337H234.369V197.624H208.252Z"
        fill="white"
    />
    <path
        d="M244.048 197.624V188.337H246.88V162.855H244.048V153.568H277.926V168.234H267.898V162.855H262.743V172.255H271.298V178.71H262.743V188.337H270.165V197.624H244.048Z"
        fill="white"
    />
    <path
        d="M279.843 197.624V188.337H282.676V162.855H279.843V153.568H318.084V170.669H305.393V162.855H298.538V171.802H303.524V178.257H298.538V188.337H305.393V179.39H318.084V197.624H279.843Z"
        fill="white"
    />
    <path
        d="M320.23 188.337H323.063V162.855H320.23V153.568H346.234C351.106 153.568 354.826 154.568 357.395 156.569C359.963 158.57 361.247 161.816 361.247 166.309C361.247 168.838 360.737 171.028 359.717 172.878C358.698 174.728 357.244 176.011 355.355 176.728L355.412 177.295C359.038 177.861 360.851 180.088 360.851 183.977V188.337H363.513V197.624H345.554V184.317C345.554 182.844 345.328 181.731 344.874 180.976C344.459 180.221 343.779 179.711 342.835 179.447C341.928 179.182 340.625 179.05 338.926 179.05V188.337H342.665V197.624H320.23V188.337ZM341.985 172.142C343.08 172.142 343.892 171.858 344.421 171.292C344.988 170.688 345.271 169.763 345.271 168.517V166.479C345.271 165.233 344.988 164.327 344.421 163.761C343.892 163.157 343.08 162.855 341.985 162.855H338.926V172.142H341.985Z"
        fill="white"
    />
    <path
        d="M218.014 133.322C216.618 133.322 215.367 133.095 214.261 132.642C213.155 132.189 212.267 131.519 211.596 130.631C210.943 129.743 210.599 128.674 210.563 127.423H215.512C215.584 128.13 215.829 128.674 216.246 129.054C216.663 129.417 217.207 129.598 217.878 129.598C218.567 129.598 219.111 129.444 219.509 129.136C219.908 128.81 220.108 128.366 220.108 127.804C220.108 127.333 219.944 126.943 219.618 126.635C219.31 126.327 218.92 126.073 218.449 125.874C217.996 125.675 217.343 125.448 216.491 125.195C215.258 124.814 214.252 124.434 213.472 124.053C212.693 123.672 212.022 123.111 211.46 122.368C210.898 121.625 210.617 120.655 210.617 119.459C210.617 117.683 211.261 116.297 212.548 115.301C213.835 114.286 215.512 113.778 217.579 113.778C219.682 113.778 221.377 114.286 222.664 115.301C223.951 116.297 224.64 117.693 224.73 119.486H219.7C219.663 118.87 219.437 118.39 219.02 118.046C218.603 117.683 218.068 117.502 217.415 117.502C216.853 117.502 216.4 117.656 216.056 117.964C215.711 118.254 215.539 118.68 215.539 119.242C215.539 119.858 215.829 120.338 216.409 120.682C216.989 121.027 217.896 121.398 219.129 121.797C220.361 122.214 221.359 122.612 222.12 122.993C222.899 123.373 223.57 123.926 224.132 124.651C224.694 125.376 224.975 126.309 224.975 127.451C224.975 128.538 224.694 129.526 224.132 130.413C223.588 131.301 222.791 132.008 221.739 132.534C220.688 133.059 219.446 133.322 218.014 133.322Z"
        fill="white"
    />
    <path d="M232.487 114.05V133.132H227.837V114.05H232.487Z" fill="white" />
    <path
        d="M248.529 120.084C248.185 119.45 247.686 118.97 247.033 118.644C246.399 118.3 245.647 118.127 244.776 118.127C243.272 118.127 242.066 118.626 241.16 119.622C240.253 120.601 239.8 121.915 239.8 123.564C239.8 125.321 240.271 126.699 241.214 127.695C242.175 128.674 243.489 129.163 245.157 129.163C246.299 129.163 247.26 128.873 248.04 128.293C248.837 127.713 249.417 126.88 249.78 125.793H243.879V122.368H253.995V126.69C253.65 127.849 253.061 128.928 252.227 129.924C251.412 130.921 250.369 131.727 249.1 132.343C247.831 132.959 246.399 133.268 244.804 133.268C242.918 133.268 241.232 132.86 239.746 132.044C238.277 131.211 237.126 130.06 236.292 128.592C235.476 127.125 235.068 125.448 235.068 123.564C235.068 121.679 235.476 120.003 236.292 118.535C237.126 117.049 238.277 115.899 239.746 115.083C241.214 114.25 242.891 113.833 244.776 113.833C247.061 113.833 248.982 114.385 250.541 115.491C252.119 116.596 253.161 118.127 253.669 120.084H248.529Z"
        fill="white"
    />
    <path
        d="M273.648 133.132H268.998L261.221 121.362V133.132H256.571V114.05H261.221L268.998 125.874V114.05H273.648V133.132Z"
        fill="white"
    />
    <path
        d="M287.35 114.05V125.466C287.35 126.608 287.631 127.487 288.193 128.103C288.755 128.719 289.58 129.027 290.668 129.027C291.755 129.027 292.589 128.719 293.169 128.103C293.75 127.487 294.04 126.608 294.04 125.466V114.05H298.69V125.439C298.69 127.143 298.327 128.583 297.602 129.761C296.877 130.939 295.898 131.827 294.665 132.425C293.45 133.023 292.091 133.322 290.586 133.322C289.081 133.322 287.731 133.032 286.534 132.452C285.356 131.854 284.422 130.966 283.733 129.788C283.044 128.592 282.7 127.143 282.7 125.439V114.05H287.35Z"
        fill="white"
    />
    <path
        d="M316.503 120.193C316.503 121.299 316.25 122.313 315.742 123.238C315.234 124.144 314.455 124.877 313.403 125.439C312.352 126.001 311.047 126.282 309.488 126.282H306.605V133.132H301.955V114.05H309.488C311.01 114.05 312.298 114.313 313.349 114.838C314.401 115.364 315.189 116.089 315.715 117.013C316.241 117.937 316.503 118.997 316.503 120.193ZM309.134 122.585C310.022 122.585 310.684 122.377 311.119 121.96C311.554 121.543 311.772 120.954 311.772 120.193C311.772 119.432 311.554 118.843 311.119 118.426C310.684 118.01 310.022 117.801 309.134 117.801H306.605V122.585H309.134Z"
        fill="white"
    />
    <path
        d="M228.754 237.516V226.507H230.291V236.415H233.105V237.516H228.754Z"
        fill="white"
    />
    <path d="M234.24 237.516V226.507H235.749V237.516H234.24Z" fill="white" />
    <path
        d="M237.504 237.516L237.708 226.507H239.217L241.161 235.436L243.119 226.507H244.615L244.819 237.516H243.582L243.459 229.524L241.596 237.516H240.726L238.877 229.524L238.755 237.516H237.504Z"
        fill="white"
    />
    <path
        d="M246.589 237.516V226.507H248.098V237.516H246.589Z"
        fill="white"
    />
    <path
        d="M251.09 237.516V227.649H249.227V226.507H254.435V227.649H252.626V237.516H251.09Z"
        fill="white"
    />
    <path
        d="M255.496 237.516V226.507H259.766V227.649H257.033V231.291H259.249V232.378H257.033V236.415H259.793V237.516H255.496Z"
        fill="white"
    />
    <path
        d="M261.033 237.516V226.507H263.426C264.242 226.507 264.886 226.634 265.357 226.888C265.837 227.132 266.177 227.504 266.377 228.002C266.585 228.5 266.689 229.121 266.689 229.864V233.914C266.689 234.693 266.585 235.35 266.377 235.885C266.177 236.419 265.846 236.827 265.384 237.108C264.931 237.38 264.319 237.516 263.549 237.516H261.033ZM262.57 236.415H263.44C264.002 236.415 264.401 236.306 264.636 236.089C264.872 235.871 265.013 235.554 265.058 235.137C265.112 234.721 265.139 234.218 265.139 233.629V230.054C265.139 229.484 265.103 229.021 265.031 228.668C264.958 228.315 264.8 228.057 264.555 227.893C264.31 227.73 263.925 227.649 263.399 227.649H262.57V236.415Z"
        fill="white"
    />
    <path
        d="M272.521 237.516V227.649H270.658V226.507H275.865V227.649H274.057V237.516H272.521Z"
        fill="white"
    />
    <path
        d="M277.009 237.516V226.507H278.518V237.516H277.009Z"
        fill="white"
    />
    <path
        d="M280.272 237.516L280.476 226.507H281.986L283.93 235.436L285.888 226.507H287.384L287.588 237.516H286.35L286.228 229.524L284.365 237.516H283.495L281.646 229.524L281.523 237.516H280.272Z"
        fill="white"
    />
    <path
        d="M289.276 237.516V226.507H293.545V227.649H290.812V231.291H293.028V232.378H290.812V236.415H293.572V237.516H289.276Z"
        fill="white"
    />
    <path
        d="M362.861 228.065H355.73"
        stroke="#581966"
        stroke-width="1.33333"
        stroke-miterlimit="10"
    />
    <path
        d="M401.784 168.87L390.499 228.064H366.073"
        stroke="#581966"
        stroke-width="1.33333"
        stroke-miterlimit="10"
    />
    <path
        d="M407.188 140.523L403.996 157.263"
        stroke="#581966"
        stroke-width="1.33333"
        stroke-miterlimit="10"
    />
    <path
        d="M156.627 130.663H166.118"
        stroke="#581966"
        stroke-width="1.33333"
        stroke-miterlimit="10"
    />
    <path
        d="M122.075 180.355L112.601 130.664H150.134"
        stroke="#581966"
        stroke-width="1.33333"
        stroke-miterlimit="10"
    />
    <path
        d="M125.998 200.935L124.086 190.902"
        stroke="#581966"
        stroke-width="1.33333"
        stroke-miterlimit="10"
    />
    <path
        d="M379.208 120.101C379.208 122.634 377.153 124.688 374.619 124.688C372.084 124.688 370.03 122.634 370.03 120.101C370.03 117.568 372.084 115.514 374.619 115.514C377.153 115.514 379.208 117.568 379.208 120.101Z"
        fill="#581966"
    />
    <path
        d="M388.386 109.93C388.386 110.811 387.671 111.525 386.79 111.525C385.908 111.525 385.193 110.811 385.193 109.93C385.193 109.049 385.908 108.335 386.79 108.335C387.671 108.335 388.386 109.049 388.386 109.93Z"
        fill="#581966"
    />
    <path
        d="M392.376 122.295C392.376 123.837 391.126 125.087 389.583 125.087C388.04 125.087 386.789 123.837 386.789 122.295C386.789 120.753 388.04 119.503 389.583 119.503C391.126 119.503 392.376 120.753 392.376 122.295Z"
        fill="#581966"
    />
    <path
        d="M178.089 237.768C178.089 239.64 176.57 241.158 174.697 241.158C172.823 241.158 171.305 239.64 171.305 237.768C171.305 235.896 172.823 234.378 174.697 234.378C176.57 234.378 178.089 235.896 178.089 237.768Z"
        fill="#581966"
    />
    <path
        d="M163.324 236.372C163.324 237.253 162.609 237.967 161.728 237.967C160.846 237.967 160.132 237.253 160.132 236.372C160.132 235.49 160.846 234.777 161.728 234.777C162.609 234.777 163.324 235.49 163.324 236.372Z"
        fill="#581966"
    />
    <path
        d="M171.704 251.928C171.704 254.131 169.918 255.916 167.714 255.916C165.51 255.916 163.724 254.131 163.724 251.928C163.724 249.725 165.51 247.939 167.714 247.939C169.918 247.939 171.704 249.725 171.704 251.928Z"
        fill="#581966"
    />
    <path
        d="M145.507 93.327L168.26 118.126L158.488 94.6928L145.507 93.327Z"
        fill="#581966"
    />
    <path
        d="M168.489 92.4895C168.489 92.4895 171.048 118.297 170.975 117.409C170.901 116.522 173.362 94.8195 173.362 94.8195L168.489 92.4895Z"
        fill="#B41C4F"
    />
    <path
        d="M166.552 120.966L144.701 110.969L145.642 120.73L166.552 120.966Z"
        fill="#B41C4F"
    />
    <path
        d="M332.258 232.396L341.148 264.039L347.437 254.72L332.258 232.396Z"
        fill="#B41C4F"
    />
    <path
        d="M334.426 230.447L348.086 243.234L349.171 237.165L334.426 230.447Z"
        fill="#581966"
    />
    <path
        d="M200.787 246.458L301.432 258.16L304.493 246.458H200.787Z"
        fill="#5F0D25"
    />
    <path
        d="M247.84 268.003L261.68 282.208V264.567L247.84 268.003Z"
        fill="#5F0D25"
    />
    <path
        d="M301.432 258.16L247.839 268.003V251.825L301.432 258.16Z"
        fill="#B41C4F"
    />
    <path
        d="M377.83 107.477C377.83 108.564 376.948 109.444 375.862 109.444C374.775 109.444 373.894 108.564 373.894 107.477C373.894 106.392 374.775 105.511 375.862 105.511C376.948 105.511 377.83 106.392 377.83 107.477Z"
        fill="#B41C4F"
    />
    <path
        d="M417.185 120.852C417.185 122.591 415.775 123.999 414.036 123.999C412.297 123.999 410.888 122.591 410.888 120.852C410.888 119.114 412.297 117.705 414.036 117.705C415.775 117.705 417.185 119.114 417.185 120.852Z"
        fill="#B41C4F"
    />
    <path
        d="M176.331 249.684C176.331 251.314 177.653 252.634 179.282 252.634C180.912 252.634 182.234 251.314 182.234 249.684C182.234 248.055 180.912 246.734 179.282 246.734C177.653 246.734 176.331 248.055 176.331 249.684Z"
        fill="#B41C4F"
    />
    <path
        d="M127.137 255.192C127.137 258.559 129.868 261.289 133.237 261.289C136.606 261.289 139.337 258.559 139.337 255.192C139.337 251.824 136.606 249.095 133.237 249.095C129.868 249.095 127.137 251.824 127.137 255.192Z"
        fill="#B41C4F"
    />
    <path
        d="M138.55 237.489C138.55 238.684 137.581 239.653 136.385 239.653C135.19 239.653 134.221 238.684 134.221 237.489C134.221 236.295 135.19 235.326 136.385 235.326C137.581 235.326 138.55 236.295 138.55 237.489Z"
        fill="#B41C4F"
    />
    <path
        d="M134.221 104.921C134.221 105.681 133.605 106.297 132.844 106.297C132.082 106.297 131.466 105.681 131.466 104.921C131.466 104.16 132.082 103.544 132.844 103.544C133.605 103.544 134.221 104.16 134.221 104.921Z"
        fill="#B41C4F"
    />
    <path
        d="M133.827 91.349C133.827 93.5213 132.065 95.2828 129.892 95.2828C127.719 95.2828 125.956 93.5213 125.956 91.349C125.956 89.1768 127.719 87.4152 129.892 87.4152C132.065 87.4152 133.827 89.1768 133.827 91.349Z"
        fill="#B41C4F"
    />
    <path
        d="M367.204 252.241C367.204 253.109 366.498 253.815 365.63 253.815C364.76 253.815 364.055 253.109 364.055 252.241C364.055 251.372 364.76 250.667 365.63 250.667C366.498 250.667 367.204 251.372 367.204 252.241Z"
        fill="#B41C4F"
    />
    <path
        d="M380.584 245.947C380.584 248.989 378.117 251.454 375.075 251.454C372.032 251.454 369.565 248.989 369.565 245.947C369.565 242.905 372.032 240.44 375.075 240.44C378.117 240.44 380.584 242.905 380.584 245.947Z"
        fill="#B41C4F"
    />
    <path
        d="M262.953 87.8383L260.582 86.2807L266.592 77.1432L268.962 78.7008L262.953 87.8383Z"
        fill="#581966"
    />
    <path
        d="M259.422 80.672L260.981 78.3027L270.122 84.3098L268.564 86.6791L259.422 80.672Z"
        fill="#581966"
    />
    <path
        d="M493.831 222.458L491.46 220.9L497.47 211.763L499.84 213.321L493.831 222.458Z"
        fill="#581966"
    />
    <path
        d="M490.3 215.292L491.858 212.923L501 218.93L499.442 221.299L490.3 215.292Z"
        fill="#581966"
    />
    <path
        d="M25.9966 236.66L23.627 235.102L29.6359 225.965L32.0063 227.522L25.9966 236.66Z"
        fill="#581966"
    />
    <path
        d="M22.4668 229.494L24.0251 227.124L33.1667 233.131L31.6083 235.501L22.4668 229.494Z"
        fill="#581966"
    />
    <path
        d="M52.6251 207.371L51.8909 205.738L58.1937 202.907L58.9279 204.54L52.6251 207.371Z"
        fill="#581966"
    />
    <path
        d="M53.176 202.356L54.8099 201.622L57.6425 207.921L56.0087 208.656L53.176 202.356Z"
        fill="#581966"
    />
    <path
        d="M2.97739 46.8595L2.24316 45.2263L8.54524 42.3949L9.27947 44.0281L2.97739 46.8595Z"
        fill="#581966"
    />
    <path
        d="M3.52783 41.8445L5.1617 41.1106L7.99436 47.4107L6.36048 48.1438L3.52783 41.8445Z"
        fill="#581966"
    />
    <path
        d="M324.639 287.124L323.361 286.284L326.602 281.355L327.88 282.195L324.639 287.124Z"
        fill="#581966"
    />
    <path
        d="M322.735 283.259L323.575 281.981L328.506 285.221L327.665 286.499L322.735 283.259Z"
        fill="#581966"
    />
    <path
        d="M472.636 232.79L471.358 231.95L474.599 227.021L475.877 227.861L472.636 232.79Z"
        fill="#581966"
    />
    <path
        d="M470.732 228.925L471.572 227.647L476.503 230.887L475.662 232.165L470.732 228.925Z"
        fill="#581966"
    />
    <path
        d="M156.458 64.9822L155.18 64.1426L158.421 59.2137L159.699 60.054L156.458 64.9822Z"
        fill="#581966"
    />
    <path
        d="M154.554 61.1168L155.394 59.8393L160.325 63.0792L159.484 64.3567L154.554 61.1168Z"
        fill="#581966"
    />
    <path
        d="M393.756 15.2166L392.478 14.3763L395.719 9.44812L396.997 10.2885L393.756 15.2166Z"
        fill="#581966"
    />
    <path
        d="M391.852 11.3511L392.693 10.0735L397.623 13.3134L396.782 14.5909L391.852 11.3511Z"
        fill="#581966"
    />
    <path
        d="M368.72 287.518L366.878 285.577L374.37 278.474L376.212 280.416L368.72 287.518Z"
        fill="white"
    />
    <path
        d="M367.021 280.172L368.963 278.331L376.069 285.82L374.126 287.662L367.021 280.172Z"
        fill="white"
    />
    <path
        d="M282.145 326.928L281.219 325.952L284.986 322.382L285.912 323.357L282.145 326.928Z"
        fill="white"
    />
    <path
        d="M281.291 323.235L282.268 322.31L285.839 326.075L284.863 327L281.291 323.235Z"
        fill="white"
    />
    <path
        d="M495.759 102.278L495.204 101.692L497.464 99.5503L498.019 100.136L495.759 102.278Z"
        fill="white"
    />
    <path
        d="M495.247 100.063L495.832 99.5077L497.975 101.766L497.39 102.322L495.247 100.063Z"
        fill="white"
    />
    <path
        d="M95.3045 108.18L93.4629 106.239L100.955 99.136L102.797 101.078L95.3045 108.18Z"
        fill="white"
    />
    <path
        d="M93.606 100.834L95.548 98.9937L102.654 106.482L100.711 108.324L93.606 100.834Z"
        fill="white"
    />
    <path
        d="M150.564 287.495L148.721 285.553L156.214 278.451L158.056 280.393L150.564 287.495Z"
        fill="white"
    />
    <path
        d="M148.865 280.149L150.808 278.308L157.913 285.797L155.971 287.638L148.865 280.149Z"
        fill="white"
    />
    <path
        d="M19.9906 19.4748L18.989 18.42L23.0612 14.5602L24.0629 15.615L19.9906 19.4748Z"
        fill="white"
    />
    <path
        d="M19.0674 15.4825L20.1226 14.482L23.9841 18.5517L22.9289 19.5529L19.0674 15.4825Z"
        fill="white"
    />
    <path
        d="M280.622 71.0066L279.621 69.9518L283.693 66.0913L284.694 67.1468L280.622 71.0066Z"
        fill="white"
    />
    <path
        d="M279.699 67.015L280.754 66.0146L284.616 70.0843L283.56 71.0854L279.699 67.015Z"
        fill="white"
    />
    <path
        d="M125.348 286.514L124.558 285.68L127.772 282.634L128.562 283.467L125.348 286.514Z"
        fill="#B41C4F"
    />
    <path
        d="M124.62 283.362L125.453 282.572L128.501 285.785L127.668 286.575L124.62 283.362Z"
        fill="#B41C4F"
    />
    <path
        d="M402.91 92.3334L401.386 91.385L405.045 85.5131L406.568 86.4607L402.91 92.3334Z"
        fill="#B41C4F"
    />
    <path
        d="M400.566 87.8555L401.514 86.3334L407.389 89.99L406.441 91.5122L400.566 87.8555Z"
        fill="#B41C4F"
    />
    <path
        d="M472.08 203.765L470.557 202.817L474.215 196.944L475.739 197.893L472.08 203.765Z"
        fill="#B41C4F"
    />
    <path
        d="M469.736 199.288L470.685 197.765L476.559 201.422L475.611 202.945L469.736 199.288Z"
        fill="#B41C4F"
    />
    <path
        d="M230.391 14.2061L226.838 13.695L228.809 2.86102e-06L232.362 0.511167L230.391 14.2061Z"
        fill="#B41C4F"
    />
    <path
        d="M222.494 7.89289L223.005 4.34268L236.706 6.31259L236.195 9.86279L222.494 7.89289Z"
        fill="#B41C4F"
    />
    <path
        d="M20.6216 206.921L19.2144 206.719L19.9947 201.293L21.4027 201.495L20.6216 206.921Z"
        fill="#B41C4F"
    />
    <path
        d="M17.4927 204.42L17.6951 203.012L23.124 203.793L22.9215 205.201L17.4927 204.42Z"
        fill="#B41C4F"
    />
    <path
        d="M39.064 139.76C39.064 150.267 30.5427 158.784 20.0316 158.784C9.52061 158.784 1 150.267 1 139.76C1 129.253 9.52061 120.737 20.0316 120.737C30.5427 120.737 39.064 129.253 39.064 139.76Z"
        stroke="#581966"
        stroke-width="0.956"
        stroke-miterlimit="10"
    />
    <path
        d="M34.1866 139.76C34.1866 147.574 27.849 153.908 20.0317 153.908C12.2143 153.908 5.87671 147.574 5.87671 139.76C5.87671 131.946 12.2143 125.612 20.0317 125.612C27.849 125.612 34.1866 131.946 34.1866 139.76Z"
        stroke="#581966"
        stroke-width="0.710667"
        stroke-miterlimit="10"
    />
    <path
        d="M29.1605 139.76C29.1605 144.8 25.0731 148.885 20.0318 148.885C14.9904 148.885 10.9031 144.8 10.9031 139.76C10.9031 134.721 14.9904 130.635 20.0318 130.635C25.0731 130.635 29.1605 134.721 29.1605 139.76Z"
        stroke="#581966"
        stroke-width="0.458667"
        stroke-miterlimit="10"
    />
</svg>